<?xml version="1.0" encoding="UTF-8" standalone="no"?>
<!-- Created with Inkscape (http://www.inkscape.org/) -->

<svg
   width="80.70121mm"
   height="14.830926mm"
   viewBox="0 0 80.70121 14.830926"
   version="1.1"
   id="svg1"
   xml:space="preserve"
   sodipodi:docname="logo-together.svg"
   inkscape:version="1.3.2 (091e20e, 2023-11-25, custom)"
   xmlns:inkscape="http://www.inkscape.org/namespaces/inkscape"
   xmlns:sodipodi="http://sodipodi.sourceforge.net/DTD/sodipodi-0.dtd"
   xmlns="http://www.w3.org/2000/svg"
   xmlns:svg="http://www.w3.org/2000/svg"><sodipodi:namedview
     id="namedview1"
     pagecolor="#ffffff"
     bordercolor="#000000"
     borderopacity="0.25"
     inkscape:showpageshadow="2"
     inkscape:pageopacity="0.0"
     inkscape:pagecheckerboard="0"
     inkscape:deskcolor="#d1d1d1"
     inkscape:document-units="mm"
     showguides="true"
     inkscape:zoom="2"
     inkscape:cx="194.5"
     inkscape:cy="-45.25"
     inkscape:window-width="1680"
     inkscape:window-height="979"
     inkscape:window-x="-8"
     inkscape:window-y="-8"
     inkscape:window-maximized="1"
     inkscape:current-layer="g1"
     inkscape:export-bgcolor="#ffffff00"><inkscape:page
       x="17.330162"
       y="-28.7073"
       width="80.701225"
       height="14.830943"
       id="page4"
       margin="0"
       bleed="0" /></sodipodi:namedview><defs
     id="defs1"><inkscape:path-effect
       effect="fillet_chamfer"
       id="path-effect27"
       is_visible="true"
       lpeversion="1"
       nodesatellites_param="F,0,0,1,0,0,0,1 @ F,0,0,1,0,6.5336062,0,1 @ F,0,0,1,0,0,0,1 @ F,0,0,1,0,0,0,1"
       radius="0"
       unit="px"
       method="auto"
       mode="F"
       chamfer_steps="1"
       flexible="false"
       use_knot_distance="true"
       apply_no_radius="true"
       apply_with_radius="true"
       only_selected="false"
       hide_knots="false" /><inkscape:path-effect
       effect="fillet_chamfer"
       id="path-effect59"
       is_visible="true"
       lpeversion="1"
       nodesatellites_param="F,0,0,1,0,0,0,1 @ F,0,0,1,0,6.5336062,0,1 @ F,0,0,1,0,0,0,1 @ F,0,0,1,0,0,0,1"
       radius="0"
       unit="px"
       method="auto"
       mode="F"
       chamfer_steps="1"
       flexible="false"
       use_knot_distance="true"
       apply_no_radius="true"
       apply_with_radius="true"
       only_selected="false"
       hide_knots="false" /><clipPath
       clipPathUnits="userSpaceOnUse"
       id="clipPath24"><g
         id="g26"
         style="stroke-width:0.329327"
         transform="matrix(3.0364932,0,0,-3.0364932,-1455.9864,639.19113)"><g
           id="g25"
           style="stroke-width:0.329327"><path
             d="M 303.3115,-1.7189094 H 602.74379 V 210.1667 H 303.3115 Z"
             clip-rule="evenodd"
             id="path24"
             style="stroke-width:0.105385" /></g></g></clipPath><clipPath
       clipPathUnits="userSpaceOnUse"
       id="clipPath27"><g
         id="g29"
         style="stroke-width:0.365542"
         transform="matrix(2.7356594,0,0,2.7356594,-929.11518,-44.122072)"><g
           id="g28"
           style="stroke-width:0.365542"><path
             d="M 303.3115,-1.7189094 H 602.74379 V 210.1667 H 303.3115 Z"
             clip-rule="evenodd"
             id="path27"
             style="stroke-width:0.116974" /></g></g></clipPath><clipPath
       clipPathUnits="userSpaceOnUse"
       id="clipPath30"><g
         id="g32"
         style="stroke-width:0.0621963"
         transform="matrix(16.078111,0,0,16.078111,-5768.4869,-363.13509)"><g
           id="g31"
           style="stroke-width:0.0621963"><path
             d="M 303.3115,-1.7189094 H 602.74379 V 210.1667 H 303.3115 Z"
             clip-rule="evenodd"
             id="path30"
             style="stroke-width:0.0199028" /></g></g></clipPath><clipPath
       clipPathUnits="userSpaceOnUse"
       id="clipPath32"><g
         id="g34"
         style="stroke-width:0.0621963"
         transform="matrix(16.078111,0,0,16.078111,-5460.6276,-363.13509)"><g
           id="g33"
           style="stroke-width:0.0621963"><path
             d="M 303.3115,-1.7189094 H 602.74379 V 210.1667 H 303.3115 Z"
             clip-rule="evenodd"
             id="path32"
             style="stroke-width:0.0199028" /></g></g></clipPath></defs><g
     inkscape:groupmode="layer"
     id="layer3"
     inkscape:label="layout stron"
     transform="translate(-628.31267,36.514881)"><g
       id="g1"><path
         id="path55"
         clip-path="url(#clipPath30)"
         style="fill:#262626;fill-opacity:1;fill-rule:nonzero;stroke:none;stroke-width:1.41879"
         transform="matrix(0.06147356,0,0,0.06147356,686.43148,-50.432287)"
         d="M 36.55028,0.00411971 32.947893,-11.798437 H 14.888559 L 11.333572,0.00411971 H 0.00501281 L 17.495549,-49.718299 H 30.293503 L 47.831439,0.00411971 Z M 30.435702,-20.567405 c -3.317988,-10.676812 -5.190281,-16.70844 -5.59318,-18.106735 -0.414748,-1.421994 -0.710997,-2.53589 -0.900596,-3.365387 -0.758398,2.915089 -2.89139,10.072463 -6.398977,21.472122 z M 65.227176,0.6677173 c -4.455584,0 -7.951322,-1.7182437 -10.475362,-5.1665812 -2.535891,-3.4364875 -3.791987,-8.2238701 -3.791987,-14.3621481 0,-6.185677 1.279796,-11.02046 3.839386,-14.504347 2.583291,-3.472037 6.161978,-5.213981 10.712361,-5.213981 4.763683,0 8.40162,1.872293 10.901961,5.59318 h 0.331799 c -0.509549,-2.84399 -0.758398,-5.368031 -0.758398,-7.583973 V -52.704489 H 86.320099 V 0.00411971 H 78.404328 L 76.413535,-4.9254624 h -0.426599 c -2.369991,3.7327365 -5.960528,5.5931797 -10.75976,5.5931797 z m 3.649786,-8.2001702 c 2.618841,0 4.550384,-0.7583972 5.782779,-2.2751917 1.232396,-1.5404944 1.907843,-4.1711844 2.038193,-7.8683714 v -1.090196 c 0,-4.076385 -0.639898,-6.979625 -1.895993,-8.721568 -1.267946,-1.765644 -3.306138,-2.654391 -6.114578,-2.654391 -2.310742,0 -4.111935,0.983547 -5.40358,2.93879 -1.267946,1.931543 -1.895994,4.763682 -1.895994,8.484569 0,3.732736 0.639898,6.529326 1.943393,8.389769 1.291646,1.8722935 3.140239,2.7965901 5.54578,2.7965901 z m 52.258308,7.53657261 -1.99079,-5.16658121 h -0.237 c -1.74194,2.2159419 -3.54314,3.7445864 -5.40358,4.59778328 -1.83674,0.81764703 -4.21858,1.23239552 -7.15737,1.23239552 -3.63794,0 -6.51748,-1.01909629 -8.626773,-3.0809888 -2.085592,-2.0855924 -3.128388,-5.0480816 -3.128388,-8.9111675 0,-4.005285 1.398295,-6.967775 4.218584,-8.863768 2.808437,-1.895993 7.062577,-2.950639 12.750557,-3.175788 l 6.54117,-0.1896 v -1.658994 c 0,-3.851236 -1.96709,-5.782779 -5.87758,-5.782779 -3.03358,0 -6.58857,0.924297 -10.66496,2.74919 l -3.412784,-6.967774 c 4.360784,-2.275192 9.171864,-3.412788 14.456944,-3.412788 5.08363,0 8.98227,1.113896 11.70776,3.317988 2.71364,2.215942 4.07639,5.58133 4.07639,10.096163 V 0.00411971 Z m -3.03359,-17.53793571 -3.98158,0.142199 c -3.00989,0.0948 -5.24953,0.651748 -6.73078,1.658994 -1.45754,0.983546 -2.18039,2.488491 -2.18039,4.502984 0,2.915089 1.67084,4.3607837 5.02438,4.3607837 2.36999,0 4.26599,-0.6754475 5.68798,-2.0381926 1.4457,-1.3864451 2.18039,-3.2231881 2.18039,-5.4983801 z m 54.7705,17.53793571 H 162.53902 V -22.0842 c 0,-2.74919 -0.46215,-4.799232 -1.37459,-6.161978 -0.88875,-1.350895 -2.3226,-2.038192 -4.31339,-2.038192 -2.63069,0 -4.53853,0.983546 -5.73538,2.938789 -1.20869,1.931543 -1.80119,5.107332 -1.80119,9.527366 V 0.00411971 H 138.98131 V -37.868343 h 7.91577 l 1.37459,4.882183 h 0.5688 c 1.00725,-1.765644 2.47664,-3.140239 4.40819,-4.123785 1.91969,-0.971697 4.12378,-1.469395 6.58857,-1.469395 5.68798,0 9.52737,1.872293 11.51816,5.59318 h 0.948 c 1.00724,-1.765644 2.48849,-3.140239 4.45558,-4.123785 1.99079,-0.971697 4.21858,-1.469395 6.68338,-1.469395 4.28968,0 7.53657,1.113896 9.71696,3.317988 2.20409,2.215942 3.31799,5.735379 3.31799,10.570162 V 0.00411971 H 186.14414 V -22.0842 c 0,-2.74919 -0.46215,-4.799232 -1.3746,-6.161978 -0.9243,-1.350895 -2.35814,-2.038192 -4.31338,-2.038192 -2.53589,0 -4.43189,0.900597 -5.68798,2.70179 -1.26795,1.801194 -1.896,4.668883 -1.896,8.579369 z M 266.97269,-25.212589 c 0,8.152771 -2.32259,14.397698 -6.96777,18.7229323 -4.64519,4.3370843 -11.35226,6.49377641 -20.09753,6.49377641 H 225.87704 V -49.4813 h 15.54714 c 8.08168,0 14.36215,2.132992 18.81774,6.398976 4.47928,4.265985 6.73077,10.226513 6.73077,17.869735 z m -10.90196,0.284399 c 0,-10.641261 -4.69258,-15.973741 -14.07775,-15.973741 h -5.59318 v 32.2318823 h 4.50299 c 10.10801,0 15.16794,-5.4154303 15.16794,-16.2581413 z m 28.5584,5.924979 c 0,3.768286 0.6162,6.612276 1.84859,8.531969 1.2324,1.8959929 3.23504,2.8439895 6.01978,2.8439895 2.74919,0 4.71628,-0.9479966 5.92498,-2.8439895 1.19684,-1.895993 1.80119,-4.739983 1.80119,-8.531969 0,-3.720887 -0.6162,-6.517476 -1.84859,-8.38977 -1.2087,-1.895993 -3.19949,-2.843989 -5.97238,-2.843989 -2.74919,0 -4.73998,0.936146 -5.97238,2.79659 -1.20869,1.872293 -1.80119,4.680733 -1.80119,8.437169 z m 26.1647,0 c 0,6.161977 -1.63529,10.9849099 -4.88218,14.4569473 -3.25874,3.4838873 -7.77357,5.213981 -13.55635,5.213981 -3.63794,0 -6.84928,-0.78209715 -9.62217,-2.3699914 -2.78474,-1.5760442 -4.91773,-3.851236 -6.39897,-6.8255751 -1.4931,-2.9980388 -2.22779,-6.4937768 -2.22779,-10.4753618 0,-6.161978 1.61159,-10.96121 4.83478,-14.409548 3.22319,-3.436487 7.74987,-5.166581 13.60375,-5.166581 3.62609,0 6.83742,0.793947 9.62216,2.369991 2.77289,1.587895 4.90589,3.863086 6.39898,6.825576 1.48124,2.974339 2.22779,6.434526 2.22779,10.380562 z m 29.61304,-19.576129 c 4.45559,0 7.93948,1.753794 10.47537,5.261381 2.52404,3.483887 3.79198,8.24757 3.79198,14.314748 0,6.256777 -1.31534,11.1152594 -3.93418,14.5517469 -2.59514,3.4127876 -6.13828,5.1191814 -10.61756,5.1191814 -4.45559,0 -7.95133,-1.61159414 -10.47537,-4.8347824 h -0.71099 l -1.7064,4.17118481 h -7.91577 V -52.704489 h 10.33316 v 12.276556 c 0,1.552344 -0.13035,4.052685 -0.3792,7.489173 h 0.3792 c 2.42924,-3.756437 6.01978,-5.64058 10.75976,-5.64058 z m -3.31798,8.29497 c -2.55959,0 -4.43189,0.793947 -5.59318,2.369991 -1.17315,1.552345 -1.78935,4.123785 -1.8486,7.726172 v 1.137596 c 0,4.052685 0.5925,6.955925 1.8012,8.721568 1.23239,1.7774938 3.14024,2.6543907 5.73538,2.6543907 2.14484,0 3.83938,-0.9716965 5.07178,-2.9387897 1.25609,-1.955243 1.89599,-4.799232 1.89599,-8.531969 0,-3.697186 -0.6399,-6.470076 -1.89599,-8.342369 -1.26795,-1.860443 -2.98619,-2.79659 -5.16658,-2.79659 z m 47.23392,-8.29497 c 1.38645,0 2.5596,0.1185 3.50759,0.331799 l -0.8058,9.669565 c -0.82949,-0.2133 -1.83674,-0.331799 -3.03358,-0.331799 -3.29429,0 -5.86573,0.853197 -7.72618,2.559591 -1.83674,1.682693 -2.74919,4.052685 -2.74919,7.109974 V 0.00411971 H 363.18249 V -37.868343 h 7.82097 l 1.5168,6.398977 h 0.5214 c 1.16129,-2.144842 2.74919,-3.863086 4.73998,-5.166581 2.01449,-1.291645 4.19488,-1.943393 6.54117,-1.943393 z m 18.59259,19.576129 c 0,3.768286 0.61619,6.612276 1.84859,8.531969 1.2324,1.8959929 3.23504,2.8439895 6.01978,2.8439895 2.74919,0 4.71628,-0.9479966 5.92498,-2.8439895 1.19684,-1.895993 1.80119,-4.739983 1.80119,-8.531969 0,-3.720887 -0.6162,-6.517476 -1.84859,-8.38977 -1.2087,-1.895993 -3.19949,-2.843989 -5.97238,-2.843989 -2.74919,0 -4.73998,0.936146 -5.97238,2.79659 -1.2087,1.872293 -1.80119,4.680733 -1.80119,8.437169 z m 26.1647,0 c 0,6.161977 -1.63529,10.9849099 -4.88218,14.4569473 -3.25874,3.4838873 -7.77357,5.213981 -13.55635,5.213981 -3.63794,0 -6.84928,-0.78209715 -9.62217,-2.3699914 -2.78474,-1.5760442 -4.91773,-3.851236 -6.39897,-6.8255751 -1.4931,-2.9980388 -2.22779,-6.4937768 -2.22779,-10.4753618 0,-6.161978 1.61159,-10.96121 4.83478,-14.409548 3.22319,-3.436487 7.74987,-5.166581 13.60375,-5.166581 3.62609,0 6.83742,0.793947 9.62216,2.369991 2.77289,1.587895 4.90589,3.863086 6.39898,6.825576 1.48124,2.974339 2.22779,6.434526 2.22779,10.380562 z m 39.64996,19.00733071 -2.93879,-13.22455171 -3.93419,-16.732139 h -0.237 L 454.74711,0.00411971 H 443.60815 L 432.84839,-37.868343 h 10.28576 l 4.40818,16.779539 c 0.6873,3.00989 1.3983,7.145524 2.133,12.4187553 h 0.1896 c 0.0948,-1.7063943 0.48584,-4.4200343 1.18499,-8.1527703 l 0.5214,-2.89139 4.69258,-18.154134 h 11.37596 l 4.45559,18.154134 c 0.0592,0.509549 0.18959,1.256096 0.37919,2.227792 0.2133,0.947997 0.4029,1.978943 0.5688,3.080989 0.1896,1.113896 0.34365,2.180392 0.474,3.223188 0.15405,1.042797 0.24885,1.8841436 0.2844,2.5121913 h 0.1896 c 0.2133,-1.6115943 0.58065,-3.8393863 1.09019,-6.6833753 0.53325,-2.84399 0.91245,-4.751833 1.1376,-5.73538 l 4.50298,-16.779539 h 10.14357 L 479.96382,0.00411971 Z M 505.18052,-19.003211 c 0,3.768286 0.6162,6.612276 1.8486,8.531969 1.23239,1.8959929 3.23504,2.8439895 6.01978,2.8439895 2.74919,0 4.71628,-0.9479966 5.92497,-2.8439895 1.19685,-1.895993 1.8012,-4.739983 1.8012,-8.531969 0,-3.720887 -0.6162,-6.517476 -1.8486,-8.38977 -1.20869,-1.895993 -3.19948,-2.843989 -5.97237,-2.843989 -2.74919,0 -4.73999,0.936146 -5.97238,2.79659 -1.2087,1.872293 -1.8012,4.680733 -1.8012,8.437169 z m 26.16471,0 c 0,6.161977 -1.63529,10.9849099 -4.88218,14.4569473 -3.25874,3.4838873 -7.77357,5.213981 -13.55635,5.213981 -3.63794,0 -6.84928,-0.78209715 -9.62217,-2.3699914 -2.78474,-1.5760442 -4.91773,-3.851236 -6.39897,-6.8255751 -1.4931,-2.9980388 -2.2278,-6.4937768 -2.2278,-10.4753618 0,-6.161978 1.6116,-10.96121 4.83479,-14.409548 3.22318,-3.436487 7.74987,-5.166581 13.60375,-5.166581 3.62608,0 6.83742,0.793947 9.62216,2.369991 2.77289,1.587895 4.90588,3.863086 6.39898,6.825576 1.48124,2.974339 2.22779,6.434526 2.22779,10.380562 z M 550.18666,0.00411971 H 539.8535 V -52.704489 h 10.33316 z M 587.40738,-11.229639 c 0,3.8867854 -1.3509,6.8492747 -4.02899,8.8637673 -2.68994,2.02634267 -6.71893,3.033589 -12.08696,3.033589 -2.74919,0 -5.10733,-0.18959931 -7.06257,-0.56879793 -1.93154,-0.34364875 -3.74459,-0.87689681 -5.45098,-1.61159417 v -8.5319692 c 1.91969,0.888747 4.08824,1.6471443 6.49378,2.275192 2.39369,0.6043478 4.51483,0.9005967 6.35157,0.9005967 3.72089,0 5.59318,-1.090196 5.59318,-3.2705877 0,-0.782098 -0.2607,-1.433845 -0.75839,-1.943393 -0.474,-0.497699 -1.3272,-1.066496 -2.5596,-1.706394 -1.20869,-0.663598 -2.82028,-1.421995 -4.83478,-2.275192 -2.93879,-1.232395 -5.09548,-2.369991 -6.44637,-3.412787 -1.36275,-1.042797 -2.35815,-2.227792 -2.98619,-3.554987 -0.60435,-1.350896 -0.9006,-3.00989 -0.9006,-4.976982 0,-3.341688 1.29165,-5.936829 3.88679,-7.773572 2.61884,-1.860443 6.31602,-2.79659 11.09156,-2.79659 4.55038,0 8.98226,0.995396 13.31935,2.986189 l -3.12839,7.441773 c -1.89599,-0.782097 -3.67349,-1.433845 -5.30878,-1.943393 -1.64715,-0.533248 -3.31799,-0.805797 -5.02438,-0.805797 -3.06914,0 -4.59779,0.829497 -4.59779,2.464791 0,0.924297 0.48585,1.730094 1.4694,2.417391 0.97169,0.663598 3.12839,1.658994 6.44637,2.98619 2.96249,1.208695 5.13104,2.322591 6.49378,3.365387 1.38645,1.042796 2.39369,2.251492 3.03359,3.602387 0.6636,1.362745 0.9954,2.974339 0.9954,4.834783 z m 18.01193,-9.337766 4.50298,-5.782779 10.57017,-11.518159 h 11.66035 l -15.02574,16.447741 15.92634,21.42472171 h -11.89736 l -10.90196,-15.35754371 -4.45558,3.554987 V 0.00411971 H 595.46535 V -52.704489 h 10.33316 v 23.510315 l -0.5214,8.626769 z m 32.61108,-27.065302 c 0,-3.377238 1.87229,-5.071782 5.64058,-5.071782 3.72089,0 5.59318,1.694544 5.59318,5.071782 0,1.611594 -0.474,2.86769 -1.42199,3.744586 -0.9243,0.888747 -2.31075,1.327196 -4.17119,1.327196 -3.76829,0 -5.64058,-1.682694 -5.64058,-5.071782 z M 648.79015,0.00411971 H 638.45699 V -37.868343 h 10.33316 z m 0,0 m -945.08159,-0.33178492 h -5.59318 V -37.44173 h 5.59318 z m -6.06718,-47.16282879 c 0,-1.291645 0.3081,-2.239642 0.948,-2.843989 0.62805,-0.592498 1.422,-0.900597 2.36999,-0.900597 0.8769,0 1.659,0.319949 2.32259,0.947996 0.6636,0.604348 0.9954,1.540495 0.9954,2.79659 0,1.267946 -0.3318,2.215942 -0.9954,2.84399 -0.66359,0.604348 -1.44569,0.900597 -2.32259,0.900597 -0.94799,0 -1.74194,-0.296249 -2.36999,-0.900597 -0.6399,-0.628048 -0.948,-1.576044 -0.948,-2.84399 z m 43.37085,47.16282879 V -24.311978 c 0,-3.033589 -0.69915,-5.285081 -2.0856,-6.778175 -1.36274,-1.481245 -3.50758,-2.227792 -6.44637,-2.227792 -3.86309,0 -6.70708,1.042796 -8.53197,3.128388 -1.8012,2.085593 -2.70179,5.54578 -2.70179,10.380563 v 19.48132879 h -5.59318 V -37.44173 h 4.55038 l 0.9006,5.071781 h 0.2844 c 1.16129,-1.824893 2.77289,-3.235038 4.83478,-4.218584 2.08559,-1.007247 4.40818,-1.516795 6.96777,-1.516795 4.45559,0 7.79728,1.078346 10.04877,3.223188 2.27519,2.156693 3.41279,5.59318 3.41279,10.333163 v 24.22131179 z m 40.88235,0 h -26.87571 V -4.1670512 l 20.23973,-28.9138948 h -19.00733 v -4.360784 h 25.16931 v 4.360784 l -20.00273,28.3924967 h 20.47673 z M -234.74276,-47.490494 c 0,-1.291645 0.3081,-2.239642 0.94799,-2.843989 0.62805,-0.592498 1.422,-0.900597 2.37,-0.900597 0.87689,0 1.65899,0.319949 2.32259,0.947996 0.66359,0.604348 0.99539,1.540495 0.99539,2.79659 0,1.267946 -0.3318,2.215942 -0.99539,2.84399 -0.6636,0.604348 -1.4457,0.900597 -2.32259,0.900597 -0.948,0 -1.74195,-0.296249 -2.37,-0.900597 -0.63989,-0.628048 -0.94799,-1.576044 -0.94799,-2.84399 z m 24.56496,43.5604419 c 0,-1.5167945 0.3318,-2.6543903 0.99539,-3.4127876 0.6873,-0.7820971 1.6827,-1.1849957 2.98619,-1.1849957 1.29165,0 2.29889,0.4028986 3.03359,1.1849957 0.7584,0.7583973 1.1376,1.8959931 1.1376,3.4127876 0,1.4930946 -0.3792,2.6306904 -1.1376,3.41278758 -0.7347,0.78209716 -1.74194,1.18499569 -3.03359,1.18499569 -1.17314,0 -2.13299,-0.3554987 -2.89139,-1.0427962 -0.73469,-0.72284737 -1.09019,-1.90784307 -1.09019,-3.55498707 z m 60.06743,3.60238689 -1.0902,-5.26138079 h -0.2844 c -1.87229,2.3107415 -3.72088,3.8749359 -5.54578,4.69258286 -1.83674,0.81764703 -4.12378,1.23239552 -6.87297,1.23239552 -3.69719,0 -6.58858,-0.94799655 -8.67417,-2.84398968 -2.08559,-1.8959931 -3.12839,-4.5740833 -3.12839,-8.0579707 0,-7.512873 5.98423,-11.447058 17.96454,-11.802557 l 6.30417,-0.189599 v -2.322592 c 0,-2.903239 -0.63989,-5.048082 -1.89599,-6.446377 -1.23239,-1.386444 -3.22319,-2.085592 -5.97238,-2.085592 -3.10469,0 -6.61227,0.947997 -10.52276,2.84399 l -1.70639,-4.313385 c 1.82489,-0.971696 3.83938,-1.753793 6.01977,-2.322591 2.1804,-0.568798 4.36079,-0.853197 6.54118,-0.853197 4.42004,0 7.69062,0.995396 9.81177,2.986189 2.14484,1.967093 3.22318,5.107332 3.22318,9.432566 v 25.31150779 z m -12.70315,-3.98158549 c 3.50758,0 6.25677,-0.9479966 8.24757,-2.8439897 1.99079,-1.919693 2.98618,-4.6096336 2.98618,-8.0579706 v -3.365388 l -5.59318,0.236999 c -4.49113,0.1659 -7.72617,0.853197 -9.71696,2.085593 -1.96709,1.232395 -2.93879,3.152088 -2.93879,5.735379 0,2.0263425 0.6162,3.5786869 1.84859,4.645183 1.2324,1.0427962 2.95064,1.5641943 5.16659,1.5641943 z m 45.38533,-33.7960773 c 1.63529,0 3.10469,0.13035 4.40818,0.379199 l -0.75839,5.213981 c -1.55235,-0.308099 -2.91509,-0.473998 -4.07639,-0.473998 -3.00989,0 -5.58133,1.220545 -7.72617,3.649786 -2.12114,2.441091 -3.17579,5.47468 -3.17579,9.100767 v 19.90792779 h -5.59318 V -37.44173 h 4.64518 l 0.6162,6.872975 h 0.2844 c 1.3509,-2.393692 2.99804,-4.242285 4.92958,-5.54578 1.95525,-1.327195 4.10009,-1.990793 6.44638,-1.990793 z m 26.212101,38.44126038 c -5.37988,0 -9.551061,-1.63529408 -12.513551,-4.92958208 -2.93879,-3.3179879 -4.40818,-7.9868713 -4.40818,-14.0303493 0,-6.221227 1.48124,-11.02046 4.45558,-14.409547 2.99804,-3.377238 7.264021,-5.071782 12.797951,-5.071782 1.8012,0 3.57869,0.189599 5.35618,0.568798 1.8012,0.379199 3.19949,0.829497 4.21859,1.327195 l -1.75379,4.787383 c -1.2324,-0.473998 -2.59515,-0.865047 -4.07639,-1.184996 -1.45754,-0.343649 -2.73734,-0.521398 -3.83939,-0.521398 -7.56027,0 -11.328551,4.811083 -11.328551,14.409548 0,4.550383 0.91244,8.05797 2.749191,10.5227614 1.82489,2.4410912 4.56223,3.6497868 8.20017,3.6497868 3.09283,0 6.25677,-0.6635976 9.47996,-1.9907928 v 4.9769819 c -2.46479,1.25609541 -5.58133,1.89599308 -9.33777,1.89599308 z m 43.5249,-0.66359759 V -24.311978 c 0,-3.033589 -0.69915,-5.285081 -2.0856,-6.778175 -1.36274,-1.481245 -3.50758,-2.227792 -6.44637,-2.227792 -3.88679,0 -6.73078,1.066496 -8.53197,3.175788 -1.8012,2.121142 -2.70179,5.59318 -2.70179,10.427962 v 19.38652979 h -5.59318 V -53.036274 h 5.59318 v 15.973742 c 0,1.931543 -0.083,3.531288 -0.237,4.787383 h 0.3318 c 1.10204,-1.801194 2.66624,-3.199488 4.69258,-4.218585 2.05004,-1.042796 4.38448,-1.564194 7.01518,-1.564194 4.51483,0 7.91577,1.090196 10.19096,3.270588 2.27519,2.156692 3.41279,5.56948 3.41279,10.238363 v 24.22131179 z m 16.38849,-3.60238689 c 0,-1.5167945 0.3318,-2.6543903 0.99539,-3.4127876 0.6873,-0.7820971 1.6827,-1.1849957 2.98619,-1.1849957 1.29165,0 2.29889,0.4028986 3.03359,1.1849957 0.7584,0.7583973 1.1376,1.8959931 1.1376,3.4127876 0,1.4930946 -0.3792,2.6306904 -1.1376,3.41278758 -0.7347,0.78209716 -1.74194,1.18499569 -3.03359,1.18499569 -1.17314,0 -2.13299,-0.3554987 -2.89139,-1.0427962 -0.73469,-0.72284737 -1.09019,-1.90784307 -1.09019,-3.55498707 z m 0,0 M -246.02283,-215.25942 c 10.04877,0 18.77034,1.68269 26.16471,5.02438 7.39437,3.31799 13.08235,8.05797 17.06394,14.21995 3.98159,6.16199 5.97238,13.44971 5.97238,21.85133 0,8.31867 -1.99079,15.58269 -5.97238,21.80392 -3.98159,6.19753 -9.66957,10.93751 -17.06394,14.21995 -7.39437,3.29429 -16.11594,4.92958 -26.16471,4.92958 h -22.79932 v 31.23649 h -26.2595 v -113.2856 z m -1.46939,60.67179 c 7.89207,0 13.88815,-1.6827 17.96453,-5.07178 4.10009,-3.41279 6.16198,-8.24758 6.16198,-14.50435 0,-6.37528 -2.06189,-11.25746 -6.16198,-14.64655 -4.07638,-3.41279 -10.07246,-5.11919 -17.96453,-5.11919 h -21.32993 v 39.34187 z m 120.71552,54.55721 c -11.75515,0 -22.36087,-2.52404 -31.80528,-7.58398 -9.45627,-5.08363 -16.85065,-12.08695 -22.18312,-20.99812 -5.34434,-8.91117 -8.01058,-18.91254 -8.01058,-30.0041 0,-11.11526 2.66624,-21.11662 8.01058,-30.00409 5.33247,-8.91117 12.72685,-15.89079 22.18312,-20.95073 9.44441,-5.08363 20.05013,-7.63137 31.80528,-7.63137 11.75517,0 22.32532,2.54774 31.710493,7.63137 9.408865,5.05994 16.803243,12.03956 22.183123,20.95073 5.403582,8.88747 8.10537,18.88883 8.10537,30.00409 0,11.09156 -2.701788,21.09293 -8.10537,30.0041 -5.37988,8.91117 -12.774258,15.91449 -22.183123,20.99812 -9.385173,5.05994 -19.955323,7.58398 -31.710493,7.58398 z m 0,-22.32532 c 6.69523,0 12.72686,-1.52865 18.10674,-4.59779 5.40358,-3.09284 9.634016,-7.39437 12.703155,-12.89275 3.092842,-5.49838 4.645184,-11.75516 4.645184,-18.77034 0,-7.01517 -1.552342,-13.27195 -4.645184,-18.77033 -3.069139,-5.52208 -7.299575,-9.82361 -12.703155,-12.89275 -5.37988,-3.05729 -11.41151,-4.59779 -18.10674,-4.59779 -6.70707,0 -12.75055,1.5405 -18.15413,4.59779 -5.37988,3.06914 -9.61032,7.37067 -12.70315,12.89275 -3.06915,5.49838 -4.59779,11.75516 -4.59779,18.77033 0,7.01518 1.52864,13.27196 4.59779,18.77034 3.09283,5.49838 7.32327,9.79991 12.70315,12.89275 5.40358,3.06914 11.44706,4.59779 18.15413,4.59779 z M 22.129885,-101.97382 0.27856109,-133.54211 H -23.847958 v 31.56829 h -26.259508 v -113.2856 h 49.0588299 c 10.0487666,0 18.7703361,1.68269 26.1647081,5.02438 7.394373,3.31799 13.082354,8.05797 17.06394,14.21995 3.981586,6.16199 5.972381,13.44971 5.972381,21.85133 0,8.41347 -2.026347,15.66564 -6.067181,21.75652 -4.052688,6.10273 -9.788064,10.78346 -17.206139,14.03035 l 25.40631,36.40307 z m -0.521399,-72.18994 c 0,-6.37528 -2.061893,-11.25746 -6.161981,-14.64655 -4.076385,-3.41279 -10.0724637,-5.11919 -17.9645379,-5.11919 H -23.847958 v 39.53147 h 21.3299251 c 7.8920742,0 13.8881529,-1.71825 17.9645379,-5.16658 4.100088,-3.47204 6.161981,-8.34238 6.161981,-14.59915 z M 85.693059,-193.9295 H 49.432185 v -21.32992 h 98.733855 v 21.32992 h -36.26087 v 91.95568 H 85.693059 Z m 97.726611,-0.33177 v 29.9567 h 52.42421 v 21.04552 h -52.42421 v 41.28523 h -26.25951 v -113.2856 h 85.65149 v 20.99813 z m 125.87024,94.23085 c -11.75512,0 -22.36088,-2.52404 -31.80527,-7.58398 -9.45627,-5.08363 -16.85065,-12.08695 -22.18313,-20.99812 -5.34433,-8.91117 -8.01057,-18.91254 -8.01057,-30.0041 0,-11.11526 2.66624,-21.11662 8.01057,-30.00409 5.33248,-8.91117 12.72686,-15.89079 22.18313,-20.95073 9.44439,-5.08363 20.05015,-7.63137 31.80527,-7.63137 11.75517,0 22.32532,2.54774 31.7105,7.63137 9.40887,5.05994 16.80325,12.03956 22.18315,20.95073 5.40353,8.88747 8.10536,18.88883 8.10536,30.00409 0,11.09156 -2.70183,21.09293 -8.10536,30.0041 -5.3799,8.91117 -12.77428,15.91449 -22.18315,20.99812 -9.38518,5.05994 -19.95533,7.58398 -31.7105,7.58398 z m 0,-22.32532 c 6.69523,0 12.72686,-1.52865 18.10676,-4.59779 5.40359,-3.09284 9.63402,-7.39437 12.70317,-12.89275 3.09284,-5.49838 4.64513,-11.75516 4.64513,-18.77034 0,-7.01517 -1.55229,-13.27195 -4.64513,-18.77033 -3.06915,-5.52208 -7.29958,-9.82361 -12.70317,-12.89275 -5.3799,-3.05729 -11.41153,-4.59779 -18.10676,-4.59779 -6.70704,0 -12.75054,1.5405 -18.15413,4.59779 -5.37985,3.06914 -9.61028,7.37067 -12.70315,12.89275 -3.06913,5.49838 -4.59778,11.75516 -4.59778,18.77033 0,7.01518 1.52865,13.27196 4.59778,18.77034 3.09287,5.49838 7.3233,9.79991 12.70315,12.89275 5.40359,3.06914 11.44709,4.59779 18.15413,4.59779 z m 76.65742,-92.90368 h 26.25948 v 91.90828 h 56.78502 v 21.37732 h -83.0445 z m 92.71402,0 h 26.25954 v 113.2856 h -26.25954 z m 102.94059,115.229 c -11.75512,0 -22.36082,-2.52404 -31.80524,-7.58398 -9.4563,-5.08363 -16.85068,-12.08695 -22.18316,-20.99812 -5.34434,-8.91117 -8.01055,-18.91254 -8.01055,-30.0041 0,-11.11526 2.66621,-21.11662 8.01055,-30.00409 5.33248,-8.91117 12.72686,-15.89079 22.18316,-20.95073 9.44442,-5.08363 20.05012,-7.63137 31.80524,-7.63137 11.75517,0 22.32532,2.54774 31.7105,7.63137 9.40887,5.05994 16.80325,12.03956 22.18315,20.95073 5.40359,8.88747 8.10536,18.88883 8.10536,30.00409 0,11.09156 -2.70177,21.09293 -8.10536,30.0041 -5.3799,8.91117 -12.77428,15.91449 -22.18315,20.99812 -9.38518,5.05994 -19.95533,7.58398 -31.7105,7.58398 z m 0,-22.32532 c 6.69523,0 12.72686,-1.52865 18.10676,-4.59779 5.40359,-3.09284 9.63402,-7.39437 12.70317,-12.89275 3.09284,-5.49838 4.64519,-11.75516 4.64519,-18.77034 0,-7.01517 -1.55235,-13.27195 -4.64519,-18.77033 -3.06915,-5.52208 -7.29958,-9.82361 -12.70317,-12.89275 -5.3799,-3.05729 -11.41153,-4.59779 -18.10676,-4.59779 -6.70704,0 -12.75054,1.5405 -18.15413,4.59779 -5.37985,3.06914 -9.61028,7.37067 -12.70312,12.89275 -3.06915,5.49838 -4.59781,11.75516 -4.59781,18.77033 0,7.01518 1.52866,13.27196 4.59781,18.77034 3.09284,5.49838 7.32327,9.79991 12.70312,12.89275 5.40359,3.06914 11.44709,4.59779 18.15413,4.59779 z m 0,0 m -1110.1617,-118.23251 -55.67564,142.943376 55.67597,-0.02765 v 47.47524 l -74.1566,-9.27e-4 -18.49104,47.4742797 h -23.57761 c -13.16599,0 -22.21541,-13.2361137 -17.43677,-25.5044287 l 73.85972,-189.629626 c 5.33839,-13.70586 18.54001,-22.73154 33.24877,-22.73154 z m 0,0 74.15611,190.39132 h -74.15611 v 47.4742798 h 116.22477 a 18.712852,18.712848 0 0 0 17.43692,-25.5044768 l -73.86004,-189.629563 a 35.681758,35.681758 0 0 0 -33.24877,-22.73156 z" /></g></g></svg>
