<?xml version="1.0" encoding="UTF-8" standalone="no"?>
<!-- Created with Inkscape (http://www.inkscape.org/) -->

<svg
   width="129.82729mm"
   height="106.95433mm"
   viewBox="0 0 129.82729 106.95433"
   version="1.1"
   id="svg1"
   xml:space="preserve"
   inkscape:version="1.3.2 (091e20e, 2023-11-25, custom)"
   sodipodi:docname="rysunek.svg"
   xmlns:inkscape="http://www.inkscape.org/namespaces/inkscape"
   xmlns:sodipodi="http://sodipodi.sourceforge.net/DTD/sodipodi-0.dtd"
   xmlns="http://www.w3.org/2000/svg"
   xmlns:svg="http://www.w3.org/2000/svg"><sodipodi:namedview
     id="namedview1"
     pagecolor="#ffffff"
     bordercolor="#000000"
     borderopacity="0.25"
     inkscape:showpageshadow="2"
     inkscape:pageopacity="0.0"
     inkscape:pagecheckerboard="0"
     inkscape:deskcolor="#d1d1d1"
     inkscape:document-units="mm"
     inkscape:zoom="0.17438447"
     inkscape:cx="2265.11"
     inkscape:cy="-94.618517"
     inkscape:window-width="1680"
     inkscape:window-height="979"
     inkscape:window-x="-8"
     inkscape:window-y="-8"
     inkscape:window-maximized="1"
     inkscape:current-layer="layer1" /><defs
     id="defs1" /><g
     inkscape:label="Warstwa 1"
     inkscape:groupmode="layer"
     id="layer1"
     transform="translate(-498.09175,544.9807)"><path
       style="fill:#405eb0;fill-opacity:1"
       d="m 504.19788,-438.15224 c -2.41371,-0.4913 -4.84899,-2.54609 -5.71971,-4.82603 -0.33973,-0.88956 -0.43702,-1.74969 -0.36322,-3.21117 0.0947,-1.87548 0.22403,-2.24036 2.13913,-6.03552 2.29383,-4.54572 5.00651,-9.55875 8.34222,-15.41645 19.78318,-34.7404 40.72558,-59.87733 58.79816,-70.57481 9.16773,-5.42654 17.03652,-7.44051 25.66459,-6.5687 5.44616,0.55029 8.37788,1.32164 12.61486,3.31904 6.91127,3.25811 11.9112,8.4023 16.08019,16.54415 3.38413,6.60904 5.96536,17.33386 5.96536,24.78558 0,3.04499 -0.29039,4.12392 -1.5632,5.80798 -3.22822,4.27125 -10.15921,3.78587 -12.78867,-0.89561 -0.70613,-1.25717 -0.81512,-1.7908 -1.15152,-5.63753 -0.9585,-10.96079 -3.97997,-18.826 -9.05258,-23.56482 -2.2875,-2.13697 -4.28439,-3.32302 -7.019,-4.16891 -1.87563,-0.58018 -2.66355,-0.66969 -5.99586,-0.68112 -3.47688,-0.0119 -4.08445,0.059 -6.48229,0.75715 -1.45521,0.42368 -3.49298,1.15372 -4.52837,1.62233 -16.44195,7.44142 -36.33116,30.88556 -57.45299,67.72194 -0.78852,1.37517 -2.07223,3.71224 -5.08658,9.26042 -0.39531,0.7276 -1.63657,3.07587 -2.75835,5.21838 -1.48898,2.84384 -2.3311,4.145 -3.1194,4.81975 -1.68553,1.44275 -4.39116,2.15784 -6.52277,1.72395 z m 113.27548,-30.30787 c -1.52766,-0.56254 -3.72645,-2.6028 -4.37935,-4.06359 -0.80993,-1.81214 -0.78536,-4.77105 0.0538,-6.47605 1.4061,-2.857 3.84609,-4.38309 7.01203,-4.38567 3.12617,-0.003 5.69306,1.58081 6.97131,4.30018 1.79999,3.8293 0.44413,7.9711 -3.3343,10.1854 -1.48236,0.86873 -4.57454,1.08375 -6.32347,0.43973 z"
       id="path56" /></g></svg>
