<?xml version="1.0" encoding="UTF-8" standalone="no"?>
<!-- Created with Inkscape (http://www.inkscape.org/) -->

<svg
   width="121.21734mm"
   height="100mm"
   viewBox="0 0 121.21734 100"
   version="1.1"
   id="svg1"
   xml:space="preserve"
   inkscape:version="1.3.2 (091e20e, 2023-11-25, custom)"
   sodipodi:docname="rysunek.svg"
   xmlns:inkscape="http://www.inkscape.org/namespaces/inkscape"
   xmlns:sodipodi="http://sodipodi.sourceforge.net/DTD/sodipodi-0.dtd"
   xmlns="http://www.w3.org/2000/svg"
   xmlns:svg="http://www.w3.org/2000/svg"><sodipodi:namedview
     id="namedview1"
     pagecolor="#ffffff"
     bordercolor="#000000"
     borderopacity="0.25"
     inkscape:showpageshadow="2"
     inkscape:pageopacity="0.0"
     inkscape:pagecheckerboard="0"
     inkscape:deskcolor="#d1d1d1"
     inkscape:document-units="mm"
     inkscape:zoom="0.17438447"
     inkscape:cx="2265.11"
     inkscape:cy="-94.618517"
     inkscape:window-width="1680"
     inkscape:window-height="979"
     inkscape:window-x="-8"
     inkscape:window-y="-8"
     inkscape:window-maximized="1"
     inkscape:current-layer="layer1" /><defs
     id="defs1" /><g
     inkscape:label="Warstwa 1"
     inkscape:groupmode="layer"
     id="layer1"
     transform="translate(-742.39034,192.434)"><g
       id="g57"><circle
         style="fill:#ffffff;fill-opacity:1;stroke:none;stroke-width:15;stroke-linecap:round;stroke-linejoin:round"
         id="path54"
         cx="824.24042"
         cy="-132.19263"
         r="32.051723" /><g
         id="g3"
         transform="matrix(1.9798203,0,0,1.9798203,713.83352,139.11962)"
         style="stroke-width:0.505096"><path
           style="fill:#f8851a;stroke-width:0.505096"
           d="m 50.533812,-117.33262 c -5.107146,-0.9508 -9.725723,-3.61905 -12.876537,-7.43903 -2.384136,-2.89048 -3.775542,-6.42692 -4.331718,-11.00961 l -0.15127,-1.24642 -4.946278,3.8859 c -7.707087,6.05483 -8.546234,6.65049 -9.702536,6.88726 -2.230014,0.45662 -4.113566,-0.64927 -4.101474,-2.4081 0.0077,-1.12185 0.805382,-2.79523 1.746764,-3.66444 0.584238,-0.53945 18.628016,-14.70819 22.756857,-17.86965 l 0.758276,-0.58062 -7.090743,-0.0147 c -7.517262,-0.0156 -8.268742,-0.12718 -8.908705,-1.32296 -0.478477,-0.89405 -0.32386,-2.25682 0.322886,-2.84589 1.413951,-1.28786 1.129141,-1.26214 15.52489,-1.4021 l 13.606661,-0.13229 -4.240963,-3.40376 c -4.263828,-3.42211 -5.112985,-4.33897 -5.112985,-5.52063 0,-0.8601 1.02947,-1.77689 2.210491,-1.96854 2.087853,-0.33881 2.755488,0.0849 13.026079,8.26768 10.539045,8.39663 12.968803,10.66696 14.454519,13.50609 1.695628,3.24026 2.193927,5.32722 2.171635,9.0952 -0.01703,2.87938 -0.113153,3.58115 -0.742889,5.42395 -3.355072,9.818 -13.820122,15.72729 -24.37296,13.76265 z m 7.770557,-8.98765 c 2.268771,-0.60385 4.192019,-1.67934 5.959065,-3.33232 2.825588,-2.6432 4.032136,-5.65051 3.794595,-9.458 -0.52477,-8.41143 -9.986007,-13.83146 -18.550622,-10.62702 -5.505586,2.0599 -9.045697,7.73836 -8.159274,13.08776 0.818823,4.94144 4.559181,8.93421 9.655184,10.30675 1.809941,0.48749 5.511784,0.49906 7.301052,0.0228 z m -5.540292,-4.99093 c -5.784519,-1.62453 -7.932968,-7.89034 -4.122805,-12.02388 3.058277,-3.31784 8.349625,-3.62912 11.779841,-0.69298 4.093632,3.504 3.076761,9.8453 -1.949802,12.15916 -1.668071,0.76786 -4.109464,1.00643 -5.707234,0.5577 z"
           id="path5" /><path
           style="fill:#1266ab;stroke-width:0.505096"
           d="m 52.764077,-131.3112 c -5.784519,-1.62453 -7.932968,-7.89034 -4.122805,-12.02388 3.058277,-3.31784 8.349625,-3.62912 11.779841,-0.69298 4.093632,3.504 3.076761,9.8453 -1.949802,12.15916 -1.668071,0.76786 -4.109464,1.00643 -5.707234,0.5577 z"
           id="path4" /></g></g></g></svg>
