<?xml version="1.0" encoding="UTF-8" standalone="no"?>
<!-- Created with Inkscape (http://www.inkscape.org/) -->

<svg
   width="100.00001mm"
   height="100.00001mm"
   viewBox="0 0 100.00001 100.00001"
   version="1.1"
   id="svg1"
   xml:space="preserve"
   inkscape:version="1.3.2 (091e20e, 2023-11-25, custom)"
   sodipodi:docname="rysunek.svg"
   xmlns:inkscape="http://www.inkscape.org/namespaces/inkscape"
   xmlns:sodipodi="http://sodipodi.sourceforge.net/DTD/sodipodi-0.dtd"
   xmlns="http://www.w3.org/2000/svg"
   xmlns:svg="http://www.w3.org/2000/svg"><sodipodi:namedview
     id="namedview1"
     pagecolor="#ffffff"
     bordercolor="#000000"
     borderopacity="0.25"
     inkscape:showpageshadow="2"
     inkscape:pageopacity="0.0"
     inkscape:pagecheckerboard="0"
     inkscape:deskcolor="#d1d1d1"
     inkscape:document-units="mm"
     inkscape:zoom="0.17438447"
     inkscape:cx="2265.11"
     inkscape:cy="-94.618517"
     inkscape:window-width="1680"
     inkscape:window-height="979"
     inkscape:window-x="-8"
     inkscape:window-y="-8"
     inkscape:window-maximized="1"
     inkscape:current-layer="layer1" /><defs
     id="defs1" /><g
     inkscape:label="Warstwa 1"
     inkscape:groupmode="layer"
     id="layer1"
     transform="translate(-51.496843,154.49064)"><g
       id="g54"><path
         id="rect53"
         style="fill:#000000;stroke-width:15;stroke-linecap:round;stroke-linejoin:round"
         d="m 51.496846,-154.49063 h 16.7633 l -16.7633,16.76331 z m 60.009494,43.23635 v 16.763306 H 94.743026 Z m -60.009494,0 h 16.7633 v 16.763306 h -16.7633 z m 43.24618,-43.23635 h 16.763314 v 16.76331 H 94.743026 Z m -31.08669,59.939387 c -2.57011,-0.263961 -5.0734,-1.289665 -7.12556,-2.919635 -0.24065,-0.191136 -0.74693,-0.65908 -1.12509,-1.039872 -2.20736,-2.22275 -3.52397,-5.03791 -3.84179,-8.21446 -0.0889,-0.88863 -0.0897,-34.62144 -6e-4,-35.5208 0.31625,-3.20048 1.64355,-6.01346 3.90405,-8.27396 2.25227,-2.25226 5.08512,-3.58894 8.27395,-3.90404 0.91404,-0.0903 34.61832,-0.088 35.54781,0.002 3.145334,0.30607 6.018884,1.66491 8.246534,3.8996 2.26842,2.27561 3.58191,5.06027 3.90365,8.27592 0.0889,0.88862 0.0897,34.62143 6e-4,35.52079 -0.31568,3.19455 -1.6424,6.00669 -3.90446,8.275918 -2.22765,2.234697 -5.10119,3.59353 -8.246534,3.899603 -0.82148,0.07992 -34.85355,0.07848 -35.63256,-0.0016 z m 26.89924,-7.451417 c 0.16154,-0.13322 0.20379,-0.36372 0.13303,-0.72579 -0.10201,-0.52196 -0.73375,-1.74817 -1.46552,-2.84459 -0.35742,-0.53552 -0.63736,-0.97366 -0.62212,-0.97366 0.0152,0 0.42498,0.19899 0.91049,0.44221 0.79891,0.40021 0.87903,0.42841 0.84357,0.2969 -0.1227,-0.45507 -0.17743,-1.25958 -0.11451,-1.68351 0.12558,-0.84609 0.50162,-1.29515 1.20806,-1.44263 0.91491,-0.19101 1.6986,0.33492 2.0667,1.38695 0.2034,0.58133 0.20277,1.60522 -8e-4,2.19857 -0.19315,0.56142 -0.28162,0.62725 -0.3837,0.28555 -0.18876,-0.63182 -0.50596,-1.00625 -0.91792,-1.08354 -0.43991,-0.0825 -0.83958,0.25916 -0.93014,0.79517 -0.10382,0.61448 0.56175,1.94572 1.14313,2.28642 0.2392,0.14018 0.28813,0.14861 0.45704,0.0786 0.10545,-0.0437 0.24993,-0.18455 0.3265,-0.31835 0.0755,-0.13201 0.17342,-0.25402 0.21748,-0.27114 0.0818,-0.0318 0.20043,0.19872 0.202,0.39246 4.8e-4,0.0579 0.0178,0.16832 0.0384,0.24532 l 0.0375,0.14001 0.11801,-0.15002 c 0.22615,-0.2875 0.88963,-1.44681 1.16544,-2.0364 0.38898,-0.83149 0.81837,-1.92098 1.22544,-3.10926 0.1913,-0.55844 0.40955,-1.09884 0.485,-1.2009 0.16493,-0.22308 1.12681,-1.01461 2.89858,-2.38523 5.295694,-4.09669 8.127624,-7.26828 9.425624,-10.55606 0.36958,-0.93613 0.66893,-2.28534 0.66893,-3.01494 v -0.36782 l -1.29699,1.30077 c -5.13151,5.14653 -10.292384,8.25932 -13.360424,8.05835 -0.82076,-0.0538 -1.25109,-0.20126 -1.8929,-0.64882 l -0.39279,-0.2739 0.33028,-0.37545 c 1.05778,-1.20241 2.47733,-3.21633 2.93836,-4.16869 0.38457,-0.79439 0.38853,-1.25946 0.0107,-1.25946 -0.20621,0 -0.49598,0.11873 -1.99377,0.81692 -1.50524,0.70165 -2.00176,0.8585 -2.87522,0.90827 -1.60355,0.0914 -3.13196,-0.73515 -4.15287,-2.24574 -0.45022,-0.66617 -0.72872,-1.58322 -0.81854,-2.6953 -0.0764,-0.94548 -0.18399,-1.22525 -0.6185,-1.60771 l -0.27816,-0.24485 -0.7225,0.71064 c -2.36806,2.32915 -5.52086,4.66593 -8.74388,6.48075 l -0.58328,0.32844 0.16998,0.17743 c 0.5444,0.56823 2.07998,0.99644 3.57328,0.99644 0.28451,0 0.5173,0.0175 0.5173,0.039 0,0.0214 -0.16866,0.21921 -0.3748,0.43957 -0.65597,0.70124 -0.79394,1.18985 -0.50129,1.77529 0.15252,0.30511 1.29861,1.45767 1.90676,1.9175 0.72768,0.55022 1.35718,0.75252 1.80815,0.58106 0.0876,-0.0333 0.49022,-0.37848 0.89476,-0.76709 1.49139,-1.43264 2.40339,-1.87996 3.82951,-1.87829 0.75023,0.002 1.48081,0.15249 2.22237,0.46121 0.60447,0.25163 0.64121,0.3219 0.14228,0.27204 -0.47853,-0.0478 -1.65999,0.0567 -2.23055,0.19737 -1.57807,0.389 -2.84407,1.51395 -3.76175,3.34265 -0.46866,0.93392 -0.875,1.18288 -1.93069,1.18288 -0.70329,0 -1.35714,-0.16932 -2.1634,-0.56019 -0.93437,-0.45297 -1.65538,-1.06788 -2.01829,-1.72125 -0.0538,-0.0969 -0.0699,0.0576 -0.0714,0.68756 -0.002,1.00644 -0.1472,2.28681 -0.34806,3.07865 -0.0838,0.33013 -0.1432,0.60932 -0.13211,0.6204 0.0111,0.0111 0.38343,0.11941 0.82742,0.2407 2.56715,0.70131 4.83666,1.70509 6.78788,3.0022 1.54188,1.025 2.41058,1.76292 4.20551,3.57236 l 1.12944,1.13858 0.37395,-0.0974 c 0.20566,-0.0536 0.41203,-0.12879 0.45858,-0.16718 z m -9.52766,-13.72499 c -0.21854,-0.13326 -1.13547,-1.02187 -1.29567,-1.25566 -0.0664,-0.0969 -0.10591,-0.27672 -0.10591,-0.48223 0,-0.27716 0.0298,-0.36166 0.19332,-0.54786 0.24788,-0.28233 0.59257,-0.39352 0.91614,-0.29553 0.24058,0.0729 0.50508,0.30095 1.1876,1.02415 0.37751,0.40002 0.39065,0.42504 0.39065,0.74364 0,0.71975 -0.70676,1.16679 -1.28613,0.81349 z m -6.96718,2.76861 c 0.18024,-2.48656 -0.39989,-5.47947 -1.60274,-8.2686 l -0.41449,-0.96112 0.15051,-0.1172 c 0.0828,-0.0645 0.60053,-0.35112 1.15058,-0.63702 3.60171,-1.87206 6.99422,-4.3642 9.71211,-7.1345 l 0.96141,-0.97997 -0.0422,-0.48 c -0.19035,-2.1651 -1.54663,-4.79082 -3.86451,-7.48159 -0.79209,-0.9195 -2.04426,-2.11431 -2.84934,-2.71879 -0.64993,-0.48798 -1.3651,-0.91598 -1.42705,-0.85401 -0.0177,0.0177 -0.002,0.28059 0.0354,0.58418 0.0961,0.78372 0.0841,2.54056 -0.0237,3.46185 -0.44585,3.81147 -2.17403,7.79968 -5.02274,11.59126 -0.56054,0.74607 -1.49427,1.84136 -1.60643,1.8844 -0.0613,0.0235 -2.57326,-1.57981 -2.79408,-1.78341 -0.025,-0.023 0.056,-0.20991 0.18001,-0.41523 2.23636,-3.70264 4.17135,-8.08124 4.92171,-11.13715 0.36121,-1.47104 0.44324,-2.10292 0.44056,-3.39353 -0.002,-1.03541 -0.0168,-1.19504 -0.14032,-1.52637 -0.20312,-0.54498 -0.40826,-0.86234 -0.76439,-1.18253 -1.04024,-0.93527 -2.84164,-1.12421 -5.37019,-0.56325 -1.29701,0.28773 -3.18029,0.95536 -4.39356,1.55752 -0.58648,0.29107 -1.48491,0.79933 -1.48405,0.83956 4.7e-4,0.0172 0.15625,0.21408 0.34642,0.43754 1.99945,2.3494 2.69002,5.61334 2.12251,10.03203 -0.089,0.69285 -0.57739,3.34738 -0.62456,3.39456 -0.0114,0.0114 -0.12889,-0.0342 -0.26114,-0.10147 -0.99956,-0.50782 -4.95627,-1.4497 -6.17841,-1.47075 -0.50093,-0.009 -0.60168,0.01 -0.91973,0.1657 -1.35507,0.66542 -1.95525,3.21701 -1.3586,5.77586 0.21355,0.91587 0.68279,1.95822 1.06618,2.36837 l 0.12291,0.1315 0.48212,-0.11597 c 1.2775,-0.30728 3.36132,-0.39561 4.89057,-0.20729 5.34885,0.65865 10.05827,3.98294 13.80006,9.74122 l 0.60449,0.93026 0.0477,-0.27396 c 0.0262,-0.15068 0.0743,-0.64212 0.10693,-1.0921 z" /><path
         style="fill:#569340;stroke-width:1"
         d="m 91.496845,-84.490631 v -29.999999 h 30.000005 30 v 29.999999 30 h -30 -30.000005 z m 15.277785,27.282532 c 0.12223,-0.08078 0.71735,-0.91489 1.3225,-1.853586 1.22852,-1.905671 1.46562,-2.206723 1.73797,-2.206723 0.14035,0 0.20252,-0.125194 0.24373,-0.490847 0.0361,-0.320176 0.21307,-0.732262 0.50898,-1.185146 0.46905,-0.717859 2.35632,-4.452842 4.4026,-8.712894 l 1.17416,-2.444447 0.4335,-0.07576 c 0.56893,-0.09943 1.30631,-0.480993 1.45062,-0.750629 0.0631,-0.118005 0.11483,-0.373549 0.11483,-0.567875 0,-0.273652 0.10647,-0.450983 0.47222,-0.786457 0.59992,-0.550269 2.68244,-2.062203 4.19444,-3.045205 0.64167,-0.417171 1.34842,-0.877314 1.57056,-1.022541 0.6136,-0.401146 3.10382,-2.992067 3.64272,-3.790028 0.26192,-0.387841 0.79885,-1.350059 1.19316,-2.138262 0.39773,-0.795017 0.81776,-1.487054 0.94337,-1.554283 0.31405,-0.16807 0.72371,-0.04075 0.94231,0.292876 0.23987,0.366095 0.15528,1.49655 -0.18569,2.481852 -0.28401,0.820659 -0.24577,1.431629 0.13938,2.22726 0.14653,0.302673 0.91143,1.195547 1.91572,2.236215 0.91949,0.9528 1.87181,2.021163 2.11625,2.374138 0.24445,0.352975 0.86945,1.117314 1.38889,1.69853 1.15374,1.290935 1.66667,1.554202 1.66667,0.855427 0,-0.189035 -0.22963,-0.505324 -0.74144,-1.021221 -0.40779,-0.411053 -0.96822,-1.097369 -1.2454,-1.525146 -0.30026,-0.463403 -1.20194,-1.473894 -2.23078,-2.5 l -1.72683,-1.722222 -0.0135,-1.555556 c -0.007,-0.855556 -0.0824,-2.355556 -0.16666,-3.333334 -0.0842,-0.977777 -0.15319,-2.262085 -0.15319,-2.854017 0,-1.033545 0.0126,-1.089431 0.31877,-1.408753 0.40676,-0.424311 1.1906,-0.622762 2.04041,-0.516587 0.34513,0.04312 1.3631,0.323618 2.26216,0.623324 2.25343,0.751199 2.4349,0.734379 3.16827,-0.293657 0.21473,-0.301019 0.30173,-0.332671 1.05451,-0.383643 0.99467,-0.06735 1.12653,-0.267628 0.46995,-0.713785 -0.50675,-0.344347 -0.54958,-0.348739 -0.62403,-0.06399 -0.0404,0.154391 -0.15456,0.224051 -0.37408,0.228213 -0.96105,0.01822 -2.06195,0.203302 -2.25648,0.379354 -0.17676,0.159963 -0.27369,0.171804 -0.58028,0.07089 -0.20244,-0.06664 -0.87304,-0.191886 -1.49022,-0.278334 -1.92889,-0.270181 -2.76613,-0.905222 -2.3484,-1.781227 0.1255,-0.263176 0.27246,-0.384834 0.52614,-0.435569 0.55736,-0.111472 0.9811,-0.478439 1.11144,-0.962528 0.14122,-0.52442 0.0758,-0.818076 -0.40764,-1.828774 -0.20379,-0.426054 -0.37051,-0.828144 -0.37051,-0.893533 0,-0.137045 0.69442,-0.813273 1.5,-1.460692 1.39991,-1.125069 3.69561,-2.459329 5.50783,-3.201149 1.0303,-0.42174 1.20976,-0.55239 1.01976,-0.74238 -0.26292,-0.26293 -3.40544,1.08259 -5.10688,2.18658 -0.58258,0.37801 -1.41847,1.07866 -2.07283,1.737461 -0.66108,0.665564 -1.16853,1.090255 -1.27777,1.069389 -0.1997,-0.03814 -0.16159,0.421072 -0.55687,-6.71078 -0.16669,-3.00767 -0.24882,-3.87149 -0.398,-4.18585 -0.16489,-0.34748 -0.46281,-0.60277 -0.57384,-0.49173 -0.0208,0.0208 0.033,0.38452 0.11976,0.80817 0.29027,1.41818 0.61643,6.07352 0.61655,8.80051 l 7e-5,1.363581 -0.69976,-0.02997 c -0.90459,-0.03874 -1.32976,0.199045 -1.27868,0.715099 0.0426,0.429492 -0.15418,0.510649 -0.47064,0.194192 -0.1926,-0.192603 -0.22426,-0.310634 -0.15835,-0.590278 0.12638,-0.536112 0.0929,-0.842225 -0.11744,-1.074674 -0.14735,-0.16282 -0.24042,-0.18624 -0.40023,-0.10071 -0.28965,0.155012 -0.26147,0.592641 0.0695,1.079756 0.33454,0.492312 0.34374,0.579424 0.0612,0.579424 -0.11911,0 -0.35201,-0.177579 -0.51756,-0.394619 -0.24713,-0.324026 -0.36228,-0.388625 -0.64363,-0.361111 -0.43873,0.0429 -0.48722,0.283213 -0.18367,0.910258 0.12851,0.265456 0.29188,0.760243 0.36304,1.099528 0.15246,0.726857 0.0812,0.861399 -0.62184,1.17454 -0.54701,0.243634 -1.7985,1.358318 -2.56866,2.287859 -0.30555,0.368792 -1.05817,1.183459 -1.67248,1.810371 l -1.11692,1.139842 -1.6053,9.04e-4 c -1.769,0.001 -3.29896,0.14396 -4.15735,0.388452 -0.30748,0.08758 -1.28395,0.263742 -2.16992,0.391475 -1.36143,0.196279 -2.03244,0.226927 -4.33334,0.197924 -2.3719,-0.0299 -2.76583,-0.01053 -3.0593,0.150424 -0.33756,0.185143 -0.88001,0.738784 -1.84762,1.885751 -0.28479,0.337572 -0.97293,0.925491 -1.52919,1.306485 -0.55627,0.380996 -1.23193,0.883583 -1.50146,1.11686 -0.53817,0.465792 -2.05465,1.364234 -3.177485,1.882511 -0.71115,0.328262 -0.72912,0.330494 -1.75106,0.217595 -1.09291,-0.120741 -1.35635,-0.08796 -1.35635,0.168795 0,0.126383 0.32646,0.174923 1.60702,0.238938 2.297025,0.114828 2.405625,0.08833 3.558255,-0.867975 0.53057,-0.440203 1.60589,-1.250871 2.38958,-1.801485 0.78371,-0.550614 1.80336,-1.363171 2.26589,-1.805685 1.13751,-1.08827 1.42111,-1.24783 2.21878,-1.248339 0.35784,-2.29e-4 0.93284,-0.07024 1.27777,-0.155574 0.43674,-0.108051 1.72351,-0.175314 4.23827,-0.221546 1.98611,-0.03652 4.28611,-0.122166 5.11111,-0.190341 1.15161,-0.09517 1.57741,-0.09298 1.83333,0.0094 l 0.33333,0.133348 -0.50001,0.4047 c -0.82856,0.670645 -1.428,1.360676 -1.9998,2.302062 -0.29852,0.491463 -0.65217,0.991462 -0.78588,1.111111 -0.37399,0.33462 -0.71309,0.924307 -0.9878,1.717709 -0.13751,0.39713 -0.30114,0.860415 -0.36364,1.029522 -0.0625,0.169106 -0.36972,0.510968 -0.6827,0.759692 -0.67381,0.535467 -0.83761,0.794782 -0.8429,1.334405 -0.004,0.394246 0.006,0.402852 0.51157,0.472222 1.10497,0.151453 2.1422,0.07916 3.00112,-0.209169 1.06457,-0.357363 1.47023,-0.581186 2.42782,-1.339573 0.42777,-0.338787 1.12777,-0.819947 1.55555,-1.069245 0.42778,-0.249298 1.07778,-0.629642 1.44445,-0.84521 0.36666,-0.215566 1.05282,-0.683635 1.52478,-1.040153 0.47197,-0.356517 0.88447,-0.648214 0.91667,-0.648214 0.0322,0 0.0586,0.102483 0.0586,0.22774 0,0.41748 -0.33282,0.878611 -0.80785,1.119289 -0.91566,0.463935 -2.17314,1.546357 -5.02457,4.325097 -2.1282,2.073944 -2.64156,2.48262 -3.74802,2.983722 -0.38354,0.173696 -0.80639,0.434687 -0.93967,0.579982 -0.13329,0.145293 -1.62516,3.03917 -3.31528,6.430834 -2.43893,4.894367 -3.18556,6.296672 -3.61877,6.796784 -0.30021,0.346566 -0.54584,0.718736 -0.54584,0.827044 0,0.108313 -0.65,1.158224 -1.44445,2.333141 -0.79444,1.174912 -1.44444,2.220661 -1.44444,2.323888 0,0.14888 0.0632,0.17215 0.30556,0.112555 0.16805,-0.04132 0.40555,-0.141216 0.52777,-0.221989 z"
         id="path3" /></g></g></svg>
