<?xml version="1.0" encoding="UTF-8" standalone="no"?>
<!-- Created with Inkscape (http://www.inkscape.org/) -->

<svg
   width="92.359962mm"
   height="100mm"
   viewBox="0 0 92.359962 100"
   version="1.1"
   id="svg1"
   xml:space="preserve"
   inkscape:version="1.3.2 (091e20e, 2023-11-25, custom)"
   sodipodi:docname="rysunek.svg"
   xmlns:inkscape="http://www.inkscape.org/namespaces/inkscape"
   xmlns:sodipodi="http://sodipodi.sourceforge.net/DTD/sodipodi-0.dtd"
   xmlns="http://www.w3.org/2000/svg"
   xmlns:svg="http://www.w3.org/2000/svg"><sodipodi:namedview
     id="namedview1"
     pagecolor="#ffffff"
     bordercolor="#000000"
     borderopacity="0.25"
     inkscape:showpageshadow="2"
     inkscape:pageopacity="0.0"
     inkscape:pagecheckerboard="0"
     inkscape:deskcolor="#d1d1d1"
     inkscape:document-units="mm"
     inkscape:zoom="0.17438447"
     inkscape:cx="2265.11"
     inkscape:cy="-94.618517"
     inkscape:window-width="1680"
     inkscape:window-height="979"
     inkscape:window-x="-8"
     inkscape:window-y="-8"
     inkscape:window-maximized="1"
     inkscape:current-layer="layer1" /><defs
     id="defs1" /><g
     inkscape:label="Warstwa 1"
     inkscape:groupmode="layer"
     id="layer1"
     transform="translate(-435.36723,67.583006)"><path
       style="fill:#01609d;stroke-width:1"
       d="m 483.87228,32.405809 c -0.06,-0.06 -0.116,-12.08143 -0.118,-26.7085698 l -0.004,-26.5946802 -1.23161,-0.693 c -1.0727,-0.603 -9.48262,-5.45521 -10.17692,-5.87132 -0.141,-0.08 -1.29071,-0.744 -2.55581,-1.4652 -1.2652,-0.722 -3.22041,-1.8435 -4.34491,-2.49301 -1.12461,-0.65 -2.92641,-1.6833 -4.00411,-2.2973 -1.07771,-0.614 -3.72301,-2.13171 -5.87842,-3.37251 -12.53564,-7.21672 -15.43924,-8.88193 -16.39535,-9.40283 -0.583,-0.318 -1.0999,-0.642 -1.1482,-0.72 -0.114,-0.184 0.127,-0.37 1.2715,-0.984 0.51601,-0.276 1.97231,-1.10211 3.23741,-1.83481 1.26511,-0.733 2.72191,-1.5637 3.23741,-1.8466 0.515,-0.283 1.20541,-0.68101 1.53341,-0.88501 0.525,-0.326 1.9296,-1.1329 3.95281,-2.269 0.628,-0.353 3.31641,-1.89121 5.41851,-3.10111 0.609,-0.351 1.37591,-0.788 1.70391,-0.973 0.328,-0.185 2.7049,-1.54671 5.28201,-3.02711 6.35312,-3.64931 7.42492,-4.11041 11.75674,-5.05672 1.603,-0.35 2.241,-0.391 6.13401,-0.393 4.63512,-0.002 5.34612,0.08 8.74393,1.03711 2.9161,0.819 3.95131,1.3251 10.50983,5.13461 0.797,0.463 3.28851,1.90091 5.53761,3.19611 4.68301,2.69661 6.43322,3.70691 9.54173,5.50731 1.2183,0.70601 2.52171,1.45191 2.89661,1.65841 0.707,0.389 6.94642,3.99551 8.22582,4.75421 l 0.729,0.432 -0.06,20.14966 c -0.06,22.3455602 0.04,20.2126602 -1.1223,24.1538702 -0.955,3.24461 -2.77751,6.91712 -4.73542,9.54162 -0.315,0.42201 -0.742,0.99701 -0.951,1.27801 -1.3822,1.8651998 -4.84831,4.9401098 -6.88142,6.1045098 -3.93241,2.25241 -6.02611,3.44941 -6.54002,3.73922 -0.328,0.185 -1.8615,1.0659 -3.4077,1.9578 -1.54631,0.892 -3.15651,1.81411 -3.57821,2.04941 -1.10841,0.618 -10.36893,5.89501 -11.07514,6.31051 -0.328,0.193 -1.2865,0.74001 -2.1299,1.21481 -0.843,0.475 -1.92311,1.0931 -2.39931,1.3731 -0.476,0.28 -0.917,0.458 -0.98,0.395 z M 500.90203,9.4460492 c 4.18691,-2.41321 5.19491,-3.07341 6.65042,-4.35551 4.03491,-3.55441 6.71361,-8.04923 8.09942,-13.59064 0.367,-1.46721 0.374,-1.7405102 0.434,-16.0898502 0.05,-11.77613 0.02,-14.63444 -0.159,-14.78884 -0.197,-0.171 -0.778,-0.51 -3.79821,-2.2174 -0.469,-0.26501 -2.10601,-1.21731 -3.63871,-2.11661 -1.53271,-0.899 -2.81071,-1.63521 -2.83991,-1.63521 -0.03,0 -0.654,-0.356 -1.3878,-0.792 -0.73401,-0.436 -3.13641,-1.8272 -5.33862,-3.09241 -2.20231,-1.2653 -4.27661,-2.4722 -4.60961,-2.682 -1.83961,-1.15911 -3.75821,-1.91911 -6.89162,-2.72981 -2.36001,-0.611 -7.29962,-0.776 -9.97473,-0.335 -2.64341,0.437 -5.84122,1.3858 -6.52902,1.9382 -0.107,0.09 -1.076,0.65101 -2.1537,1.25541 -1.07771,0.605 -2.26611,1.2777 -2.64101,1.4958 -0.375,0.218 -1.56331,0.89 -2.64101,1.49291 -1.0777,0.603 -2.0618,1.194 -2.187,1.3133 -0.27501,0.262 0.06,0.522 2.1018,1.6568 0.75,0.416 1.52721,0.86001 1.72781,0.98701 0.332,0.21 0.525,0.137 2.1298,-0.80501 6.26332,-3.67571 7.46662,-4.22301 10.62533,-4.83211 1.74001,-0.336 6.28662,-0.284 8.00822,0.09 2.73961,0.596 3.45791,0.923 8.43423,3.84141 1.7672,1.0364 6.14522,3.54391 7.66742,4.39151 0.328,0.183 1.3894,0.80401 2.35871,1.37991 0.969,0.576 1.7816,1.0478 1.8052,1.0478 0.02,0 1.2241,0.682 2.66781,1.5154 l 2.62481,1.51541 0.04,12.58413 c 0.04,10.87133 0.008,12.78134 -0.225,14.03254 -0.72401,3.8951102 -2.59591,7.5708202 -5.29622,10.39723016 -1.7799,1.86291004 -2.63321,2.47121004 -6.79652,4.84462004 -1.9651,1.1202 -3.62921,2.117 -3.69811,2.215 -0.07,0.1 -0.126,1.27981 -0.128,2.6262098 -0.003,2.28681 0.02,2.44251 0.308,2.36651 0.171,-0.04 2.53181,-1.36131 5.24612,-2.9257098 z m -4.34972,-18.45505 c 1.00981,-1.5249102 1.90431,-3.2508102 2.48661,-4.7976202 0.833,-2.2136 0.906,-3.00331 0.906,-9.78552 l -4e-4,-6.33582 -1.8313,-1.0502 c -1.0072,-0.57801 -2.52131,-1.45091 -3.36471,-1.94051 -0.844,-0.49 -1.87861,-1.0816 -2.30031,-1.3154 -0.422,-0.234 -0.846,-0.48701 -0.943,-0.56301 -0.735,-0.575 -3.07191,-1.5336 -5.02031,-2.0585 -1.48311,-0.4 -7.21222,-0.667 -7.52793,-0.351 -0.208,0.208 -0.465,0.04 4.12012,2.68021 1.9212,1.106 5.14151,2.9685 7.15632,4.13891 2.0148,1.1703 3.97001,2.301 4.34491,2.5124 l 0.682,0.385 0.04,9.89913 c 0.03,6.29782 0.104,9.8991302 0.21,9.8991302 0.09,0 0.559,-0.592 1.0383,-1.3166 z M 476.43176,31.012109 c -2.27791,-1.31551 -12.63484,-7.27692 -15.59045,-8.97383 -0.843,-0.484 -2.5302,-1.4552 -3.74851,-2.1578 -1.2183,-0.703 -3.51851,-2.02751 -5.11161,-2.94411 -3.33221,-1.91731 -4.56751,-2.72141 -5.87232,-3.82251 -4.78531,-4.0383098 -8.32722,-9.9125298 -10.04543,-16.6601498 -0.357,-1.4037 -0.441,-2.1014 -0.251,-2.1014 0.141,0 3.83091,2.1018 12.42034,7.07442 12.33153,7.13892 19.17725,11.0014298 19.33045,10.9067298 0.182,-0.113 0.219,-4.6976198 0.04,-4.9698198 -0.11,-0.167 -3.02061,-1.9362 -3.18571,-1.9362 -0.04,0 -0.557,-0.294 -1.1449,-0.653 -0.587,-0.35901 -1.4129,-0.84601 -1.8346,-1.08161 -0.99501,-0.556 -7.42592,-4.25191004 -8.86023,-5.09171 -0.609,-0.357 -3.71441,-2.14331 -6.90062,-3.97031 -3.18631,-1.82701 -6.25122,-3.60291 -6.81102,-3.94641 l -1.0177,-0.62501 0.847,-0.5020002 c 2.38121,-1.4115 10.25713,-5.83201 10.51003,-5.89881 0.16,-0.04 0.544,0.07 0.852,0.261 0.308,0.186 0.90601,0.529 1.32731,0.762 1.0461,0.579 6.11301,3.48961 8.56772,4.92131 1.1043,0.6440002 2.04091,1.1710102 2.08131,1.1710102 0.04,0 0.769,0.422 1.6189,0.937 0.85,0.515 1.57561,0.937 1.61251,0.937 0.04,0 0.537,0.28 1.1104,0.622 0.678,0.404 1.1016,0.563 1.2096,0.455 0.1,-0.1 0.147,-1.2091 0.119,-2.6901 l -0.05,-2.5239102 -1.082,-0.658 c -0.595,-0.362 -1.101,-0.658 -1.1241,-0.658 -0.02,0 -1.45311,-0.81201 -3.17771,-1.80501 -1.72451,-0.993 -3.82561,-2.19331 -4.66901,-2.66791 -0.84301,-0.475 -2.08811,-1.1958 -2.76591,-1.6027 -0.678,-0.407 -1.27071,-0.74 -1.31751,-0.74 -0.08,0 -2.0133,-1.12631 -2.6469,-1.53941 -0.141,-0.09 -0.371,-0.219 -0.51101,-0.283 -0.141,-0.06 -0.639,-0.345 -1.1075,-0.624 -0.469,-0.279 -1.3503,-0.787 -1.9595,-1.1277 -4.01471,-2.24801 -11.69274,-6.73032 -11.79674,-6.88682 -0.195,-0.293 -0.159,-12.84434 0.04,-12.96524 0.198,-0.123 0.362,-0.04 2.90011,1.44831 1.67441,0.983 3.60731,2.0909 11.58633,6.64411 0.60901,0.348 2.14261,1.22661 3.40771,1.95341 1.26521,0.727 2.56861,1.4738 2.89661,1.6602 0.328,0.186 1.0181,0.59001 1.53351,0.89601 0.515,0.307 1.2822,0.748 1.7039,0.982 0.422,0.233 1.99351,1.1386 3.49291,2.0112 1.4994,0.87301 3.03291,1.75571 3.40781,1.96251 1.456,0.803 11.71863,6.69822 12.31043,7.07132 l 0.38301,0.242 V 7.0857392 c 0,20.0978598 -0.04,25.2607698 -0.21301,25.2574698 -0.117,-0.003 -1.2481,-0.602 -2.5132,-1.3325 z"
       id="path1" /></g></svg>
