<?xml version="1.0" encoding="UTF-8" standalone="no"?>
<!-- Created with Inkscape (http://www.inkscape.org/) -->

<svg
   width="100.26448mm"
   height="99.999969mm"
   viewBox="0 0 100.26448 99.999969"
   version="1.1"
   id="svg1"
   xml:space="preserve"
   inkscape:version="1.3.2 (091e20e, 2023-11-25, custom)"
   sodipodi:docname="rysunek.svg"
   xmlns:inkscape="http://www.inkscape.org/namespaces/inkscape"
   xmlns:sodipodi="http://sodipodi.sourceforge.net/DTD/sodipodi-0.dtd"
   xmlns="http://www.w3.org/2000/svg"
   xmlns:svg="http://www.w3.org/2000/svg"><sodipodi:namedview
     id="namedview1"
     pagecolor="#ffffff"
     bordercolor="#000000"
     borderopacity="0.25"
     inkscape:showpageshadow="2"
     inkscape:pageopacity="0.0"
     inkscape:pagecheckerboard="0"
     inkscape:deskcolor="#d1d1d1"
     inkscape:document-units="mm"
     inkscape:zoom="0.17438447"
     inkscape:cx="2265.11"
     inkscape:cy="-94.618517"
     inkscape:window-width="1680"
     inkscape:window-height="979"
     inkscape:window-x="-8"
     inkscape:window-y="-8"
     inkscape:window-maximized="1"
     inkscape:current-layer="layer1" /><defs
     id="defs1" /><g
     inkscape:label="Warstwa 1"
     inkscape:groupmode="layer"
     id="layer1"
     transform="translate(-735.80812,-230.94366)"><path
       style="fill:#050607;stroke-width:1"
       d="m 772.33304,330.01937 c -9.21029,-2.7001 -16.33247,-7.0058 -22.8288,-13.80107 -8.39584,-8.78221 -13.69611,-21.05398 -13.69611,-31.71069 v -3.59598 h 25.44043 25.44044 l -0.25515,1.34283 c -0.14033,0.73856 -2.12865,11.97803 -4.41847,24.9766 l -4.16333,23.63378 -1.05859,0.0759 c -0.58222,0.0417 -2.58941,-0.37288 -4.46042,-0.92139 z m 24.48625,0.0398 c 0.10151,-0.34466 1.08452,-5.78311 2.18451,-12.08546 1.09998,-6.30233 2.63199,-15.00387 3.40447,-19.33673 0.77248,-4.33286 2.46058,-13.92064 3.75135,-21.30621 1.29075,-7.38555 2.42899,-13.79084 2.52941,-14.23397 l 0.1826,-0.80571 h -34.76545 -34.76544 l 0.23991,-0.80569 c 0.47996,-1.61175 3.47485,-6.93216 5.46649,-9.71117 2.62826,-3.6673 7.75923,-8.79005 11.46331,-11.44494 5.68344,-4.07361 13.14098,-7.26399 20.40535,-8.72955 4.69859,-0.94791 14.10197,-0.85444 18.93945,0.18828 7.43204,1.60195 14.91967,4.94844 20.58446,9.19993 5.9748,4.48418 12.12106,11.98772 15.1174,18.45582 l 1.23607,2.66828 -10.32893,0.0949 -10.32893,0.0949 -0.19656,0.97937 c -0.10813,0.53866 -0.76934,4.28274 -1.46938,8.32018 -0.70006,4.03744 -1.36181,7.78393 -1.47057,8.32553 l -0.19773,0.98475 h 13.63578 13.63578 l -4.6e-4,4.20752 c -3.7e-4,3.27908 -0.20093,5.03497 -0.90891,7.95726 -4.20466,17.35537 -16.66911,30.80303 -33.73148,36.39226 -4.27434,1.40016 -4.87354,1.47687 -4.6125,0.59047 z"
       id="path2" /></g></svg>
